<?xml version="1.0" encoding="UTF-8"?>
<!DOCTYPE svg PUBLIC "-//W3C//DTD SVG 1.1//EN" "http://www.w3.org/Graphics/SVG/1.1/DTD/svg11.dtd">
<!-- Creator: CorelDRAW X8 -->
<svg xmlns="http://www.w3.org/2000/svg" xml:space="preserve" width="297mm" height="210mm" version="1.1" style="shape-rendering:geometricPrecision; text-rendering:geometricPrecision; image-rendering:optimizeQuality; fill-rule:evenodd; clip-rule:evenodd"
viewBox="0 0 29700 21000"
 xmlns:xlink="http://www.w3.org/1999/xlink">
 <defs>
  <style type="text/css">
   <![CDATA[
    .fil0 {fill:#393185}
    .fil2 {fill:#393185}
    .fil1 {fill:#FEFEFE;fill-rule:nonzero}
   ]]>
  </style>
 </defs>
 <g id="Layer_x0020_1">
  <metadata id="CorelCorpID_0Corel-Layer"/>
  <path class="fil0" d="M9731 3754c3190,0 5776,2586 5776,5776 0,3190 -2586,5776 -5776,5776 -3190,0 -5776,-2586 -5776,-5776 0,-3190 2586,-5776 5776,-5776zm985 8992c-412,-104 -561,551 -134,639 291,60 510,-267 334,-510 -49,-69 -93,-103 -200,-129zm4444 -3c-193,-34 -347,105 -376,263 -37,200 102,348 258,380 419,87 567,-563 118,-643zm-3470 -2795c-17,-16 -42,-9 -74,-9 -203,3 -1249,-13 -1265,7 -21,-5 -15,-8 -13,13 -13,39 -61,100 -89,144 -87,138 -575,929 -618,976 -21,0 -15,-4 -10,18 -12,14 -11,4 -9,27 147,16 374,3 530,3l1532 -1c23,-5 11,2 20,-11 14,-16 5,21 11,-29l0 -1082c1,-76 -2,-51 -15,-56zm4528 -480l-5564 0c-22,27 -131,195 -140,231 176,1 1298,-18 1363,16 87,45 64,161 64,280l0 1031c0,372 16,338 -355,338 -229,0 -458,0 -688,0 -447,0 -916,-14 -1365,1l3 866c109,7 224,-5 332,1 99,6 169,97 108,191 -65,101 -389,36 -608,58l2 410 563 -1c91,-301 333,-563 720,-562 206,0 353,76 471,173 133,109 168,189 247,390l3015 -1c71,-151 62,-231 247,-388 338,-287 838,-216 1096,167 177,262 -121,233 661,221l-1 -410c-104,-8 -227,-2 -333,-2 -114,0 -224,21 -275,-56 -61,-92 8,-184 107,-190 108,-5 224,7 334,-2l-4 -2762zm-4528 -412c-2,-113 -110,-209 -232,-208 -113,1 -230,98 -224,210l456 -2zm-1740 4246c-409,-41 -758,107 -942,-217 -74,-131 -50,-358 -51,-526 0,-191 45,-344 163,-411 14,-191 3,-425 3,-621 0,-244 -28,-351 81,-535 38,-65 83,-127 123,-191l595 -947c79,-126 159,-251 240,-379 83,-130 148,-276 268,-351 188,-118 340,-36 551,-69 29,-152 61,-237 144,-317 188,-181 480,-178 670,-3 32,30 73,88 97,139 88,183 -23,185 166,184l3772 0c363,0 608,-46 755,220 66,120 47,288 47,442 0,304 -12,2384 6,2423 42,87 163,55 163,416 -1,180 22,390 -50,527 -62,119 -188,211 -371,214 -188,3 -379,0 -567,0 -37,52 -67,136 -109,194 -244,341 -713,411 -1049,152 -183,-141 -181,-232 -253,-346l-3047 1c-19,30 -32,72 -51,106 -215,402 -733,523 -1103,242 -132,-100 -169,-175 -251,-347zm4106 -2712c3,-80 11,-450 -8,-503l-459 -1c-50,1 -39,0 -46,10 -12,9 -8,-2 -13,26 -3,22 7,390 -2,468l-380 0c-32,0 -101,-12 -120,14l2 495c18,19 -15,7 29,15l470 1 2 383c0,76 -12,102 15,117l504 -2 -1 -498 484 -2c24,-4 9,6 18,-10 11,-14 9,-6 9,-57l-3 -448c-58,-21 -409,-7 -501,-8zm-761 1068l-5 -306 -308 -5c-91,-6 -158,-82 -185,-156 -22,-63 -21,-606 -3,-667 20,-72 105,-165 188,-162 48,0 104,-6 156,-6 45,0 115,8 147,-6 19,-21 15,37 14,-31l0 -265c-7,-100 110,-198 213,-208 125,-11 301,-1 432,-1 392,0 346,152 353,503 165,10 332,-24 430,71 102,99 75,260 75,430 0,172 29,331 -72,433 -108,108 -253,65 -428,74 -52,201 126,505 -348,505 -136,0 -300,8 -432,-1 -119,-8 -214,-92 -227,-202zm989 586c120,58 94,207 -20,230 -58,12 -1093,4 -1204,4 -188,0 -1529,14 -1590,-10 -105,-42 -97,-208 20,-232 60,-12 1093,-4 1206,-4 193,0 1522,-19 1588,12z"/>
  <path class="fil1" d="M10959 7229l15 27c33,60 61,111 95,172 45,81 376,646 405,668 11,-7 62,-89 69,-103l53 -84c4,-8 7,-14 12,-21 4,-7 3,-5 8,-12 8,-11 0,0 6,-10l7 -12c0,-1 1,-1 2,-2l3 -5c7,-11 11,-23 24,-41l25 -40c10,-17 20,-32 27,-43 9,-15 14,-26 24,-43l147 -255c5,-9 6,-12 13,-21 10,-14 6,-9 13,-23l40 -72c0,-1 2,-4 2,-5l29 -53 12 -23c26,-47 58,-104 80,-153 3,-8 6,-15 10,-23 3,-4 5,-9 7,-13l127 -274c2,-5 2,-7 4,-12l57 -156c49,-151 60,-265 19,-460 -22,-106 -58,-199 -114,-289 -17,-28 -41,-57 -57,-77 -57,-71 -139,-137 -221,-183 -117,-64 -257,-107 -428,-107 -235,-1 -427,79 -587,223 -50,45 -81,92 -119,147 -102,149 -160,412 -129,612l9 44c31,132 92,271 146,391 42,96 112,232 165,331zm790 -1653c45,-10 82,0 141,32 32,18 43,33 58,41 12,7 20,16 29,24 32,29 38,27 75,70 54,63 83,104 123,178l30 65c0,0 0,2 1,2 0,-1 0,1 0,2 -9,-16 0,10 -6,-4 -3,-8 3,5 0,-4l-8 -10c1,3 6,22 1,12 -32,-67 -77,-133 -127,-187 -19,-21 -32,-36 -52,-54 -53,-47 -58,-50 -120,-90 -75,-49 -106,-54 -130,-68 -13,-8 -15,-2 -15,-9z"/>
  <path class="fil2" d="M16015 13676l940 0c60,0 126,6 198,17 72,11 136,35 194,72 58,37 103,84 135,141 32,57 48,121 48,193 0,116 -41,210 -124,282 -83,72 -180,119 -293,141l313 365 13 16c20,25 39,44 56,56 17,12 34,20 50,25 17,5 40,8 70,8l66 0 0 211 -489 0 -489 -657 -127 0 0 304c0,52 3,85 8,100 6,14 16,25 28,31 13,7 39,11 78,11l69 0 0 211 -744 0 0 -211 69 0c36,0 61,-4 76,-12 15,-7 26,-19 34,-34 3,-9 5,-36 5,-82l0 -860c0,-33 -3,-57 -8,-72 -6,-14 -15,-23 -27,-28 -18,-7 -38,-11 -61,-11l-31 1 -57 0 0 -218zm7491 0l1274 0 174 485 -199 71c-33,-79 -72,-143 -117,-191 -45,-49 -95,-81 -149,-97 -54,-16 -118,-23 -190,-23l-233 0 0 383 76 0c57,0 95,-4 115,-13 20,-8 34,-22 43,-40 8,-17 13,-53 13,-106l0 -59 197 0 0 646 -197 0 0 -66c0,-45 -5,-78 -16,-98 -10,-21 -25,-35 -43,-42 -18,-8 -58,-12 -120,-12l-68 0 0 351c0,37 2,60 6,68 3,8 11,14 21,19 11,4 33,6 68,6l129 0c95,0 176,-14 241,-41 66,-27 125,-72 176,-133 51,-61 91,-134 119,-218l199 69 -200 568 -1319 0 0 -211 38 0c51,0 86,-4 103,-11 18,-7 30,-20 37,-38 4,-11 6,-42 6,-93l0 -833c0,-45 -3,-75 -10,-89 -6,-13 -15,-24 -29,-31 -13,-7 -39,-10 -77,-10l-68 0 0 -211zm-1697 0l726 0 0 211 -23 0c-46,0 -76,2 -89,6 -13,3 -23,11 -32,22 -9,12 -13,24 -13,37 0,15 8,46 25,94l270 755 287 -775c14,-39 21,-65 21,-80 0,-21 -7,-36 -20,-45 -14,-9 -42,-14 -86,-14l-46 0 0 -211 589 0 0 211c-49,0 -81,6 -98,16 -25,17 -51,58 -77,123l-457 1177 -344 0 -465 -1185c-19,-47 -33,-77 -44,-90 -10,-13 -24,-23 -43,-30 -18,-7 -45,-11 -81,-11l0 -211zm-822 0l744 0 0 211 -68 0c-39,0 -65,3 -78,10 -13,7 -23,18 -29,33 -6,15 -9,44 -9,86l0 845c0,46 3,76 8,89 5,13 14,23 26,29 15,8 38,13 69,13l81 0 0 211 -744 0 0 -211 60 0c44,0 72,-3 85,-9 13,-7 23,-17 29,-30 7,-13 10,-40 10,-81l0 -848c0,-48 -3,-79 -10,-94 -6,-15 -17,-26 -31,-34 -11,-6 -35,-9 -75,-9l-68 0 0 -211zm-1688 0l726 0 0 211 -23 0c-47,0 -76,2 -89,6 -13,3 -24,11 -32,22 -9,12 -13,24 -13,37 0,15 8,46 25,94l270 755 287 -775c14,-39 21,-65 21,-80 0,-21 -7,-36 -21,-45 -13,-9 -41,-14 -85,-14l-46 0 0 -211 589 0 0 211c-49,0 -81,6 -98,16 -26,17 -51,58 -77,123l-457 1177 -344 0 -465 -1185c-19,-47 -33,-77 -44,-90 -10,-13 -24,-23 -43,-30 -18,-7 -45,-11 -81,-11l0 -211zm-1531 0l1273 0 174 485 -198 71c-34,-79 -73,-143 -118,-191 -44,-49 -94,-81 -148,-97 -54,-16 -118,-23 -190,-23l-233 0 0 383 76 0c57,0 95,-4 115,-13 20,-8 34,-22 42,-40 9,-17 13,-53 13,-106l0 -59 198 0 0 646 -198 0 0 -66c0,-45 -5,-78 -15,-98 -11,-21 -25,-35 -43,-42 -18,-8 -58,-12 -120,-12l-68 0 0 351c0,37 2,60 6,68 3,8 10,14 21,19 10,4 33,6 68,6l128 0c96,0 176,-14 242,-41 66,-27 124,-72 176,-133 51,-61 91,-134 118,-218l200 69 -200 568 -1319 0 0 -211 38 0c51,0 85,-4 103,-11 17,-7 30,-20 37,-38 4,-11 5,-42 5,-93l0 -833c0,-45 -3,-75 -9,-89 -6,-13 -16,-24 -29,-31 -13,-7 -39,-10 -77,-10l-68 0 0 -211zm-1192 251l0 395 226 0c89,0 155,-8 199,-25 44,-16 77,-40 99,-70 23,-31 34,-68 34,-112 0,-40 -11,-74 -31,-103 -21,-29 -51,-50 -89,-64 -38,-14 -101,-21 -187,-21l-251 0z"/>
 </g>
</svg>
