<?xml version="1.0" encoding="UTF-8"?>
<!DOCTYPE svg PUBLIC "-//W3C//DTD SVG 1.1//EN" "http://www.w3.org/Graphics/SVG/1.1/DTD/svg11.dtd">
<!-- Creator: CorelDRAW X8 -->
<svg xmlns="http://www.w3.org/2000/svg" xml:space="preserve" width="50mm" height="50mm" version="1.1" style="shape-rendering:geometricPrecision; text-rendering:geometricPrecision; image-rendering:optimizeQuality; fill-rule:evenodd; clip-rule:evenodd"
viewBox="0 0 29700 21000"
 xmlns:xlink="http://www.w3.org/1999/xlink">
 <defs>
  <style type="text/css">
   <![CDATA[
    .fil0 {fill:#393185}
    .fil1 {fill:#FEFEFE;fill-rule:nonzero}
   ]]>
  </style>
 </defs>
 <g id="Layer_x0020_1">
  <metadata id="CorelCorpID_0Corel-Layer"/>
  <path class="fil0" d="M13400 4099c3190,0 5776,2586 5776,5776 0,3190 -2586,5775 -5776,5775 -3190,0 -5776,-2585 -5776,-5775 0,-3190 2586,-5776 5776,-5776zm985 8991c-412,-104 -561,551 -134,640 291,60 510,-268 334,-511 -50,-69 -94,-102 -200,-129zm4444 -3c-193,-34 -348,105 -377,264 -36,200 103,347 258,379 420,87 567,-563 119,-643zm-3471 -2794c-17,-17 -42,-10 -74,-10 -202,3 -1248,-13 -1264,8 -21,-6 -16,-9 -13,13 -14,38 -62,100 -89,143 -88,139 -576,930 -618,977 -21,0 -15,-4 -10,17 -13,14 -11,4 -9,27 147,16 374,3 530,3l1532 -1c22,-4 11,3 20,-11 14,-16 5,22 11,-29l0 -1082c0,-76 -3,-51 -16,-55zm4529 -481l-5564 1c-22,26 -132,194 -140,230 175,2 1298,-18 1362,16 87,45 65,161 65,280l0 1031c0,372 16,338 -355,338 -230,0 -459,0 -688,0 -448,0 -916,-13 -1365,1l3 866c108,7 223,-4 331,2 99,5 169,96 109,190 -66,102 -390,37 -609,58l2 410 563 -1c91,-301 334,-563 720,-562 207,0 353,76 471,173 134,110 169,189 247,390l3016 -1c71,-151 62,-231 247,-388 337,-287 838,-216 1096,168 176,262 -122,232 660,221l-1 -411c-104,-7 -226,-2 -332,-2 -115,0 -225,21 -276,-56 -60,-91 8,-184 108,-189 107,-6 223,6 333,-2l-3 -2763zm-4529 -411c-2,-114 -109,-210 -231,-209 -114,1 -231,98 -225,211l456 -2zm-1740 4245c-408,-41 -757,107 -942,-217 -74,-130 -50,-357 -50,-526 0,-191 45,-344 163,-411 14,-191 2,-425 2,-620 0,-245 -28,-351 81,-536 39,-65 84,-127 124,-191l594 -947c79,-126 160,-251 241,-379 83,-130 148,-276 268,-351 187,-118 339,-36 550,-69 30,-152 62,-237 145,-316 188,-181 479,-179 669,-4 32,30 74,89 98,139 87,183 -23,186 165,185l3773 0c363,0 608,-47 754,220 66,119 48,287 48,441 0,304 -13,2384 6,2423 42,87 163,55 162,416 0,180 22,391 -49,528 -62,118 -189,210 -371,213 -188,4 -379,0 -567,0 -37,52 -67,136 -109,194 -245,341 -713,411 -1050,152 -183,-141 -180,-232 -252,-346l-3047 2c-19,29 -33,71 -51,105 -215,402 -733,523 -1103,243 -132,-100 -169,-176 -252,-348zm4106 -2712c3,-80 11,-450 -8,-502l-458 -1c-51,0 -40,0 -46,9 -12,10 -9,-2 -13,26 -3,22 7,390 -2,468l-380 1c-32,0 -101,-13 -120,14l2 494c17,20 -16,8 29,16l470 0 2 383c-1,77 -13,103 14,117l505 -1 -1 -499 483 -2c24,-4 10,6 18,-10 12,-14 10,-5 10,-56l-3 -448c-59,-22 -410,-7 -502,-9zm-760 1069l-6 -306 -308 -6c-91,-6 -158,-82 -184,-155 -23,-64 -22,-607 -4,-668 21,-72 106,-164 189,-161 47,-1 104,-7 156,-7 45,0 115,9 147,-6 18,-21 15,38 13,-31l1 -265c-7,-99 109,-198 212,-207 126,-12 301,-2 432,-2 392,0 347,153 353,504 165,9 333,-25 431,71 101,99 75,259 75,430 0,171 28,331 -73,432 -108,109 -252,66 -427,74 -53,201 125,506 -349,505 -136,0 -299,9 -432,-1 -118,-8 -213,-91 -226,-201zm988 586c121,57 94,206 -19,230 -58,12 -1094,3 -1205,3 -188,0 -1529,14 -1589,-10 -106,-42 -98,-208 20,-232 60,-12 1093,-3 1206,-3 192,0 1522,-19 1587,12z"/>
  <path class="fil1" d="M14628 7573l14 27c33,60 61,112 95,172 46,82 377,646 406,669 11,-8 61,-89 69,-104l52 -84c5,-8 7,-14 12,-21 5,-7 4,-5 9,-11 7,-12 0,-1 5,-11l7 -12c1,0 2,-1 2,-2l3 -4c7,-11 11,-24 24,-42l26 -40c10,-17 20,-32 27,-43 8,-14 14,-25 24,-42l147 -255c5,-9 6,-12 13,-22 9,-14 5,-9 12,-23l41 -71c0,-2 2,-5 2,-5l28 -54 13 -22c26,-48 58,-105 79,-153 4,-9 7,-15 11,-23 3,-5 5,-9 7,-14l127 -274c2,-4 2,-7 4,-12l57 -155c49,-152 59,-266 18,-461 -22,-105 -57,-198 -113,-288 -18,-29 -41,-58 -57,-78 -58,-71 -139,-137 -221,-182 -118,-65 -257,-107 -428,-108 -235,-1 -427,79 -588,224 -50,44 -81,92 -119,147 -101,148 -159,411 -128,611l8 44c32,132 92,271 146,391 42,96 113,232 166,331zm789 -1653c46,-10 82,0 141,32 33,18 43,33 59,41 11,7 19,17 28,25 32,28 39,26 76,70 54,63 83,103 123,177l29 65c1,0 1,3 1,2 0,-1 1,2 1,2 -9,-15 -1,10 -6,-3 -3,-9 3,4 -1,-5l-7 -10c1,3 6,23 1,12 -33,-67 -78,-133 -128,-187 -18,-21 -32,-36 -52,-53 -53,-48 -57,-51 -119,-91 -76,-48 -106,-54 -131,-68 -12,-8 -15,-2 -15,-9z"/>
 </g>
</svg>
